<svg width="14" height="13" viewBox="0 0 14 13" fill="none" xmlns="http://www.w3.org/2000/svg">
<path fill-rule="evenodd" clip-rule="evenodd" d="M2 2.99994C2.69036 2.99994 3.25 2.4403 3.25 1.74994C3.25 1.05958 2.69036 0.499939 2 0.499939C1.30964 0.499939 0.75 1.05958 0.75 1.74994C0.75 2.4403 1.30964 2.99994 2 2.99994ZM6.31518 4.81515C6.91906 4.44779 7.60282 4.24997 8.25 4.24997H9.5C11.2424 4.24997 13.25 5.68394 13.25 7.99997V13H10.75V7.99997C10.75 7.28028 10.0076 6.74997 9.5 6.74997H8.25C7.74244 6.74997 7 7.28028 7 7.99997V13H4.5V4.24997H5.75L6.31518 4.81515ZM0.75 4.24997V13H3.25V4.24997H0.75Z" fill="white"/>
</svg>
