<svg width="18" height="17" viewBox="0 0 18 17" fill="none" xmlns="http://www.w3.org/2000/svg">
<path fill-rule="evenodd" clip-rule="evenodd" d="M16.6022 2.6779L17.8306 2.82137L17.2784 3.92807C17.0091 4.46776 16.7396 5.00745 16.4698 5.54715C16.4378 5.66145 16.3815 5.76166 16.2984 5.89213C16.2636 5.94665 16.1449 6.12006 16.1393 6.12838C16.108 6.17539 16.0848 6.21246 16.0681 6.24217V8.31622C16.0681 13.6235 10.9319 16.996 6.08142 16.996C5.08889 16.996 4.33479 16.9485 3.4713 16.76C2.05027 16.4499 0.992746 15.8335 0.508822 14.7562L0.010603 13.6471L1.22139 13.5357C2.31672 13.435 3.26641 13.2263 3.99572 12.9469C1.9935 12.6249 0.871462 11.7455 0.871462 10.094V9.22568H1.7398C1.93058 9.22568 2.10261 9.2102 2.25641 9.18179C0.753716 8.28333 0.00106089 6.84202 0.00106089 4.84288C0.000896693 4.75767 0.000896693 4.75767 0.000384283 4.66656C-0.00526087 3.65891 0.0488631 3.12049 0.324712 2.43331C0.501501 1.9929 0.757042 1.5852 1.10096 1.21163L1.75622 0.499878L2.39328 1.22795C4.49272 3.62728 6.56805 5.08291 8.68698 5.25898C8.69603 3.04501 10.3693 1.36954 12.5946 1.36954C13.6321 1.36954 14.5731 1.76332 15.3126 2.47337C15.7174 2.55654 16.1473 2.62477 16.6022 2.6779ZM14.6824 4.1138L14.4162 4.05352L14.2324 3.85178C13.7879 3.36402 13.2299 3.1061 12.5947 3.1061C11.3243 3.1061 10.4236 4.01124 10.4236 5.27694C10.4236 5.48379 10.4183 5.61376 10.3925 5.78459C10.2897 6.46625 9.90736 7.01361 9.12111 7.01361C6.51781 7.01361 4.16922 5.61897 1.87901 3.23701C1.76095 3.59591 1.73318 3.96484 1.73706 4.65673C1.73758 4.74926 1.73758 4.74926 1.73776 4.84277C1.73776 6.62113 2.45823 7.59387 4.1641 8.13608L4.76941 8.32847V8.96362C4.76941 9.73382 4.03972 10.4588 2.97207 10.7836C3.46149 11.1549 4.46241 11.3553 6.08176 11.3553H6.95009V12.2236C6.95009 13.4677 5.52057 14.4418 3.36114 14.9505C4.06538 15.1663 5.00308 15.2592 6.08145 15.2592C10.0883 15.2592 14.3315 12.4731 14.3315 8.31611V6.14527C14.3315 5.89017 14.4054 5.66874 14.5283 5.43851C14.5763 5.34849 14.6292 5.26267 14.6945 5.16479C14.7067 5.14637 14.7523 5.0796 14.7885 5.02622L14.8574 4.88859C14.9689 4.66557 15.0803 4.44254 15.1918 4.21952C15.0186 4.18672 14.8488 4.15148 14.6824 4.1138Z" fill="white"/>
</svg>
