<svg width="19" height="14" viewBox="0 0 19 14" fill="none" xmlns="http://www.w3.org/2000/svg">
<path fill-rule="evenodd" clip-rule="evenodd" d="M17.7396 11.9206C18.3162 10.9326 18.5625 9.33933 18.5625 6.74761C18.5625 4.16622 18.3185 2.58225 17.7358 1.56768C17.1519 0.51412 16.4593 0.179715 15.0848 0.0994483C14.1465 0.0358476 11.8144 -3.05176e-05 9.2835 -3.05176e-05C6.74714 -3.05176e-05 4.41403 0.0358342 3.46866 0.0999469C2.10188 0.179906 1.40916 0.51505 0.820067 1.57154C0.245855 2.58261 0 4.17432 0 6.75706C0 9.32513 0.247046 10.9249 0.825113 11.9326C1.40654 12.9755 2.08822 13.3066 3.46664 13.4034C4.45733 13.4614 6.92248 13.5 9.2835 13.5C11.6392 13.5 14.1032 13.4614 15.0848 13.404C16.4759 13.3066 17.1575 12.975 17.7396 11.9206ZM14.9785 1.78365C15.8382 1.8339 15.9977 1.91117 16.2702 2.40442C16.6669 3.09153 16.8749 4.43623 16.8749 6.75712C16.8749 9.06045 16.6658 10.4126 16.272 11.0878C15.9986 11.5825 15.8402 11.6596 14.9765 11.7201C14.0474 11.7743 11.6073 11.8125 9.28338 11.8125C6.95417 11.8125 4.51288 11.7743 3.57487 11.7195C2.72182 11.6595 2.56121 11.5815 2.29381 11.1019C1.89735 10.4107 1.68738 9.05098 1.68738 6.74767C1.68738 4.44575 1.89624 3.09355 2.29057 2.39917C2.56213 1.9122 2.72388 1.83395 3.57493 1.78414C4.47604 1.72307 6.78721 1.68754 9.28338 1.68754C11.7742 1.68754 14.0843 1.72308 14.9785 1.78365ZM7.59386 4.21921L11.8126 6.75046L7.59386 9.28171V4.21921Z" fill="white"/>
</svg>
